# This file uses centimeters as units for non-parametric coordinates.

g default
v -2.974660 -0.000000 -6.589823
v -2.863933 0.275814 -5.840554
v -3.136389 0.236292 -6.623654
v -2.661217 0.225127 -6.689064
v -2.388863 0.225127 -6.194187
v -2.948203 0.406173 -6.314200
v -2.867286 0.000000 -5.840554
v -2.472733 0.000000 -6.124776
v -3.259762 -0.000000 -6.254193
v -2.621119 0.000000 -6.587848
v -2.716070 0.161657 -5.793962
v -3.278101 0.235253 -6.012706
v -3.349526 0.135636 -6.254193
v -2.708505 0.381147 -6.140050
vt 0.419596 0.998047
vt 0.371641 0.909360
vt 0.297331 0.881580
vt 0.164042 0.909215
vt 0.207961 0.934835
vt 0.100229 0.936377
vt 0.065500 0.901559
vt 0.302729 0.998011
vt 0.280519 0.909942
vt 0.323838 0.947034
vt 0.379899 0.866384
vt 0.446731 0.948574
vt 0.272313 0.854981
vt 0.160982 0.879012
vt 0.131198 0.998047
vt 0.027665 0.974786
vt 0.001953 0.933240
vn -0.668429 -0.492527 -0.557333
vn -0.668429 -0.492527 -0.557333
vn -0.668429 -0.492527 -0.557333
vn 0.777977 -0.109534 0.618671
vn 0.777977 -0.109534 0.618671
vn 0.777977 -0.109534 0.618671
vn -0.353629 0.071482 0.932650
vn -0.353629 0.071482 0.932650
vn -0.353629 0.071482 0.932650
vn -0.138144 -0.213604 -0.967104
vn -0.138144 -0.213604 -0.967104
vn -0.138144 -0.213604 -0.967104
vn 0.874120 -0.066985 -0.481069
vn 0.874120 -0.066985 -0.481069
vn 0.874120 -0.066985 -0.481069
vn 0.447485 0.745247 0.494332
vn 0.447485 0.745247 0.494332
vn 0.447485 0.745247 0.494332
vn -0.213587 0.931517 0.294376
vn -0.213587 0.931517 0.294376
vn -0.213587 0.931517 0.294376
vn -0.543933 0.829803 -0.124757
vn -0.543933 0.829803 -0.124757
vn -0.543933 0.829803 -0.124757
vn -0.042595 0.886503 -0.460759
vn -0.042595 0.886503 -0.460759
vn -0.042595 0.886503 -0.460759
vn 0.397809 0.890964 -0.218933
vn 0.397809 0.890964 -0.218933
vn 0.397809 0.890964 -0.218933
vn 0.272503 0.931425 -0.241224
vn 0.272503 0.931425 -0.241224
vn 0.272503 0.931425 -0.241224
vn -0.104687 0.953931 0.281169
vn -0.104687 0.953931 0.281169
vn -0.104687 0.953931 0.281169
vn -0.611306 0.778828 -0.140471
vn -0.611306 0.778828 -0.140471
vn -0.611306 0.778828 -0.140471
vn -0.372720 -0.106538 0.921808
vn -0.372720 -0.106538 0.921808
vn -0.372720 -0.106538 0.921808
vn 0.437283 0.761596 0.478283
vn 0.437283 0.761596 0.478283
vn 0.437283 0.761596 0.478283
vn 0.057894 -0.435161 -0.898489
vn 0.057894 -0.435161 -0.898489
vn 0.057894 -0.435161 -0.898489
vn -0.724388 -0.433544 -0.536005
vn -0.724388 -0.433544 -0.536005
vn -0.724388 -0.433544 -0.536005
vn -0.777869 -0.465552 0.422115
vn -0.777869 -0.465552 0.422115
vn -0.777869 -0.465552 0.422115
vn -0.554020 -0.599536 0.577598
vn -0.554020 -0.599536 0.577598
vn -0.554020 -0.599536 0.577598
vn 0.434410 -0.669052 0.603041
vn 0.434410 -0.669052 0.603041
vn 0.434410 -0.669052 0.603041
vn 0.853058 -0.444489 -0.273352
vn 0.853058 -0.444489 -0.273352
vn 0.853058 -0.444489 -0.273352
s off
g Nature_RockSmall2
f 1/7/1 9/14/2 3/6/3
f 8/11/4 5/2/5 11/3/6
f 7/13/7 11/3/8 12/5/9
f 1/7/10 3/6/11 4/16/12
f 10/12/13 4/1/14 5/2/15
f 2/9/16 5/2/17 14/10/18
f 12/5/19 2/9/20 6/8/21
f 3/6/22 12/5/23 6/15/24
f 4/16/25 3/6/26 6/15/27
f 5/2/28 4/1/29 14/10/30
f 14/10/31 4/1/32 6/8/33
f 6/8/34 2/9/35 14/10/36
f 13/4/37 12/5/38 3/6/39
f 12/5/40 11/3/41 2/9/42
f 11/3/43 5/2/44 2/9/45
f 10/17/46 1/7/47 4/16/48
f 3/6/49 9/14/50 13/4/51
f 13/4/52 9/14/53 12/5/54
f 9/14/55 7/13/56 12/5/57
f 7/13/58 8/11/59 11/3/60
f 8/11/61 10/12/62 5/2/63
