# This file uses centimeters as units for non-parametric coordinates.

g default
v -2.989418 0.000000 -3.489731
v -2.122672 0.305711 -2.815728
v -2.730233 0.571559 -2.887386
v -3.234789 0.388452 -3.105652
v -3.740632 0.000000 -2.525089
v -1.595743 0.000000 -3.122386
v -1.709255 0.000000 -1.674085
v -2.425575 0.809378 -2.426762
v -2.892359 0.898327 -2.354435
v -3.291640 0.521928 -2.154534
v -3.236947 0.000000 -1.644528
v -2.717703 0.493947 -1.555248
v -1.741729 0.322807 -2.430146
v -2.148115 0.456900 -1.902450
v -2.385288 0.307064 -1.405543
v -2.591528 0.000000 -1.230335
v -3.582937 0.000000 -3.230090
v -1.399173 0.000000 -2.329594
v -1.749365 0.177874 -2.594042
v -1.990240 0.150431 -3.001251
v -2.100379 0.000000 -3.398722
v -2.365798 0.134581 -3.170408
vt 0.277479 0.682572
vt 0.458750 0.647600
vt 0.394132 0.764047
vt 0.544304 0.747371
vt 0.233261 0.833169
vt 0.130570 0.869659
vt 0.170251 0.758642
vt 0.406038 0.869659
vt 0.456406 0.602781
vt 0.502660 0.552089
vt 0.576506 0.594968
vt 0.534791 0.622562
vt 0.434978 0.438148
vt 0.587493 0.473358
vt 0.608103 0.672811
vt 0.647008 0.665400
vt 0.505073 0.697416
vt 0.678231 0.522601
vt 0.758974 0.611624
vt 0.647409 0.751557
vt 0.783084 0.732036
vt 0.531889 0.384890
vt 0.704101 0.441384
vt 0.862303 0.605498
vt 0.850309 0.528625
vt 0.794424 0.384890
vt 0.839385 0.751396
vt 0.858259 0.823451
vt 0.695772 0.746642
vt 0.997822 0.823451
vt 0.909519 0.726104
vn 0.379071 0.704638 -0.599825
vn 0.379071 0.704638 -0.599825
vn 0.379071 0.704638 -0.599825
vn 0.041838 0.715716 -0.697137
vn 0.041838 0.715716 -0.697137
vn 0.041838 0.715716 -0.697137
vn -0.585295 0.670580 -0.455799
vn -0.585295 0.670580 -0.455799
vn -0.585295 0.670580 -0.455799
vn -0.585295 0.670580 -0.455799
vn 0.167015 0.875797 -0.452864
vn 0.167015 0.875797 -0.452864
vn 0.167015 0.875797 -0.452864
vn 0.167015 0.875797 -0.452864
vn 0.377049 0.697420 -0.609458
vn 0.377049 0.697420 -0.609458
vn 0.377049 0.697420 -0.609458
vn -0.072529 0.840287 -0.537269
vn -0.072529 0.840287 -0.537269
vn -0.072529 0.840287 -0.537269
vn -0.699221 0.701029 -0.140174
vn -0.699221 0.701029 -0.140174
vn -0.699221 0.701029 -0.140174
vn 0.663402 0.739518 0.114062
vn 0.663402 0.739518 0.114062
vn 0.663402 0.739518 0.114062
vn 0.663402 0.739518 0.114062
vn 0.615104 0.734315 0.287103
vn 0.615104 0.734315 0.287103
vn 0.615104 0.734315 0.287103
vn 0.086324 0.860820 -0.501535
vn 0.086324 0.860820 -0.501535
vn 0.086324 0.860820 -0.501535
vn -0.715227 0.684955 -0.138875
vn -0.715227 0.684955 -0.138875
vn -0.715227 0.684955 -0.138875
vn -0.807545 0.366745 0.461920
vn -0.807545 0.366745 0.461920
vn -0.807545 0.366745 0.461920
vn 0.512395 0.723432 0.462706
vn 0.512395 0.723432 0.462706
vn 0.512395 0.723432 0.462707
vn 0.230900 0.887566 0.398637
vn 0.230900 0.887566 0.398637
vn 0.230900 0.887566 0.398637
vn -0.463406 0.745770 0.478625
vn -0.463406 0.745770 0.478625
vn -0.463406 0.745770 0.478625
vn -0.602481 0.524617 0.601492
vn -0.602481 0.524617 0.601492
vn -0.602481 0.524617 0.601492
vn 0.439918 0.203599 0.874654
vn 0.439918 0.203599 0.874654
vn 0.439918 0.203599 0.874654
vn 0.515188 0.732362 -0.445226
vn 0.515189 0.732362 -0.445226
vn 0.515188 0.732362 -0.445226
vn 0.515188 0.732362 -0.445226
vn 0.575310 0.809384 -0.117962
vn 0.575310 0.809385 -0.117962
vn 0.575310 0.809385 -0.117962
vn 0.575310 0.809385 -0.117962
vn 0.306064 0.858989 0.410443
vn 0.306064 0.858989 0.410443
vn 0.306064 0.858989 0.410443
vn 0.306064 0.858989 0.410443
vn -0.385468 0.436340 0.813033
vn -0.385468 0.436340 0.813033
vn -0.385468 0.436340 0.813033
vn -0.385468 0.436340 0.813033
vn 0.525449 0.840791 -0.130283
vn 0.525449 0.840791 -0.130283
vn 0.525449 0.840791 -0.130283
vn 0.284029 0.930641 -0.230727
vn 0.284029 0.930641 -0.230727
vn 0.284029 0.930641 -0.230727
vn 0.217766 0.891308 -0.397678
vn 0.217766 0.891308 -0.397678
vn 0.217766 0.891308 -0.397678
vn 0.047656 0.883747 -0.465532
vn 0.047656 0.883747 -0.465532
vn 0.047656 0.883747 -0.465532
vn 0.227148 0.655762 -0.719986
vn 0.227148 0.655762 -0.719986
vn 0.227148 0.655762 -0.719986
s off
g Nature_RockSmall4
f 22/10/1 3/14/2 2/11/3
f 1/13/4 4/22/5 3/14/6
f 1/6/7 17/7/8 5/1/9 4/5/10
f 21/9/11 22/10/12 2/11/13 20/12/14
f 2/11/15 3/14/16 8/18/17
f 3/14/18 4/22/19 9/23/20
f 4/5/21 5/1/22 10/3/23
f 18/20/24 19/15/25 13/16/26 7/21/27
f 13/16/28 14/19/29 7/21/30
f 3/14/31 9/23/32 8/18/33
f 4/5/34 10/3/35 9/8/36
f 5/1/37 11/2/38 10/3/39
f 7/21/40 14/19/41 15/24/42
f 8/18/43 9/23/44 12/25/45
f 9/23/46 10/26/47 12/25/48
f 10/3/49 11/2/50 12/4/51
f 15/27/52 16/28/53 7/29/54
f 19/15/55 20/12/56 2/11/57 13/16/58
f 2/11/59 8/18/60 14/19/61 13/16/62
f 15/24/63 14/19/64 8/18/65 12/25/66
f 11/30/67 16/28/68 15/27/69 12/31/70
f 6/17/71 19/15/72 18/20/73
f 6/17/74 20/12/75 19/15/76
f 21/9/77 20/12/78 6/17/79
f 1/13/80 22/10/81 21/9/82
f 1/13/83 3/14/84 22/10/85
