# This file uses centimeters as units for non-parametric coordinates.

g default
v -2.365375 0.254062 -4.221680
v -2.561543 -0.004889 -4.138064
v -2.607522 0.940451 -5.003802
v -2.576838 1.050038 -4.257996
v -3.128579 1.050160 -4.249055
v -3.085532 0.719435 -5.124312
v -3.489329 0.163028 -4.802994
v -2.837906 1.273445 -4.861722
v -3.090797 1.256339 -4.652236
v -2.329481 0.944626 -4.664725
v -2.273967 0.075564 -4.797197
v -3.052263 0.148250 -4.031272
v -3.248421 -0.006560 -4.236097
v -3.178184 0.083455 -5.109937
v -2.778824 -0.005146 -5.133049
v -2.764435 1.292395 -4.529544
vt 0.551749 0.910259
vt 0.677903 0.753344
vt 0.739500 0.808522
vt 0.492834 0.810024
vt 0.688671 0.928293
vt 0.508481 0.753344
vt 0.781236 0.851409
vt 0.585617 0.983670
vt 0.677364 0.369094
vt 0.806599 0.304290
vt 0.834895 0.384561
vt 0.659788 0.254197
vt 0.899593 0.336072
vt 0.836535 0.233392
vt 0.617890 0.384561
vt 0.910889 0.270528
vt 0.680944 0.143755
vt 0.897467 0.123367
vt 0.746896 0.178591
vt 0.713574 0.111887
vt 0.820989 0.210941
vt 0.862790 0.001953
vt 0.927127 0.072596
vt 0.731101 0.001953
vt 0.612564 0.001953
vt 0.624459 0.064624
vt 0.567155 0.040931
vt 0.695261 0.001953
vt 0.688828 0.102169
vt 0.808650 0.948863
vt 0.970200 0.848750
vt 0.978072 0.948863
vt 0.777215 0.858633
vt 0.823248 0.818536
vt 0.124326 0.643237
vt 0.178239 0.725453
vt 0.001953 0.717606
vt 0.239731 0.677313
vt 0.007336 0.643237
vn -0.091629 -0.750236 0.654790
vn -0.091629 -0.750236 0.654790
vn -0.091629 -0.750236 0.654790
vn -0.939969 0.331412 0.081394
vn -0.939969 0.331412 0.081394
vn -0.939969 0.331412 0.081394
vn -0.221568 -0.968037 -0.117527
vn -0.221568 -0.968037 -0.117527
vn -0.221568 -0.968037 -0.117527
vn 0.183513 -0.982210 -0.039822
vn 0.183513 -0.982210 -0.039822
vn 0.183513 -0.982210 -0.039822
vn 0.854924 0.247914 0.455680
vn 0.854924 0.247914 0.455680
vn 0.854924 0.247914 0.455680
vn -0.688817 0.084074 -0.720044
vn -0.688817 0.084074 -0.720044
vn -0.688817 0.084074 -0.720044
vn 0.015798 0.235955 0.971636
vn 0.015798 0.235955 0.971636
vn 0.015798 0.235955 0.971636
vn -0.096591 0.994695 -0.035381
vn -0.096591 0.994695 -0.035381
vn -0.096591 0.994695 -0.035381
vn -0.254546 0.870473 0.421288
vn -0.254546 0.870473 0.421288
vn -0.254546 0.870473 0.421288
vn 0.598643 0.626916 -0.498601
vn 0.598643 0.626916 -0.498601
vn 0.598643 0.626916 -0.498601
vn -0.753390 0.093423 0.650904
vn -0.753390 0.093423 0.650904
vn -0.753390 0.093423 0.650904
vn -0.832346 0.361356 -0.420263
vn -0.832346 0.361356 -0.420263
vn -0.832346 0.361356 -0.420263
vn 0.200983 0.096829 -0.974797
vn 0.200983 0.096829 -0.974797
vn 0.200983 0.096829 -0.974797
vn 0.037776 0.414162 -0.909419
vn 0.037776 0.414162 -0.909419
vn 0.037776 0.414162 -0.909419
vn 0.259882 0.112797 0.959030
vn 0.259882 0.112797 0.959030
vn 0.259882 0.112797 0.959030
vn 0.010888 0.749751 0.661630
vn 0.010888 0.749751 0.661630
vn 0.010888 0.749751 0.661630
vn -0.903027 0.107511 0.415913
vn -0.903027 0.107511 0.415913
vn -0.903027 0.107511 0.415913
vn -0.359037 -0.925030 -0.124146
vn -0.359037 -0.925030 -0.124146
vn -0.359037 -0.925030 -0.124146
vn 0.002472 -0.999997 -0.000282
vn 0.002472 -0.999997 -0.000282
vn 0.002472 -0.999997 -0.000282
vn 0.988683 0.041165 0.144263
vn 0.988683 0.041165 0.144263
vn 0.988683 0.041165 0.144263
vn -0.060802 -0.013702 -0.998056
vn -0.060802 -0.013702 -0.998056
vn -0.060802 -0.013702 -0.998056
vn 0.552286 0.013880 -0.833539
vn 0.552286 0.013880 -0.833539
vn 0.552286 0.013880 -0.833539
vn 0.764268 0.144619 -0.628474
vn 0.764268 0.144619 -0.628474
vn 0.764268 0.144619 -0.628474
vn 0.244833 0.113025 0.962955
vn 0.244833 0.113025 0.962955
vn 0.244833 0.113025 0.962955
vn 0.649298 0.732364 0.205071
vn 0.649298 0.732364 0.205071
vn 0.649298 0.732364 0.205071
vn -0.556155 0.545689 -0.626829
vn -0.556155 0.545689 -0.626829
vn -0.556155 0.545689 -0.626829
vn 0.805759 -0.517273 0.288411
vn 0.805759 -0.517273 0.288411
vn 0.805759 -0.517273 0.288411
vn 0.581420 0.794793 -0.173940
vn 0.581420 0.794793 -0.173940
vn 0.581420 0.794793 -0.173940
s off
g Nature_RockSmall3
f 2/22/1 12/23/2 13/18/3
f 7/1/4 5/2/5 9/3/6
f 13/18/7 14/19/8 15/20/9
f 2/22/10 15/20/11 11/24/12
f 1/9/13 10/10/14 4/11/15
f 7/1/16 6/5/17 14/8/18
f 12/30/19 4/31/20 5/32/21
f 9/25/22 16/26/23 8/27/24
f 9/25/25 5/28/26 16/26/27
f 10/10/28 3/14/29 8/16/30
f 12/6/31 5/2/32 13/4/33
f 9/3/34 6/5/35 7/1/36
f 6/35/37 3/36/38 15/37/39
f 8/38/40 3/36/41 6/35/42
f 1/34/43 4/31/44 2/33/45
f 5/28/46 4/29/47 16/26/48
f 13/4/49 5/2/50 7/1/51
f 13/18/52 7/21/53 14/19/54
f 2/22/55 13/18/56 15/20/57
f 11/12/58 10/10/59 1/9/60
f 15/37/61 14/39/62 6/35/63
f 15/17/64 3/14/65 11/12/66
f 10/10/67 11/12/68 3/14/69
f 2/33/70 4/31/71 12/30/72
f 10/10/73 16/13/74 4/11/75
f 8/7/76 6/5/77 9/3/78
f 2/15/79 11/12/80 1/9/81
f 10/10/82 8/16/83 16/13/84
