# This file uses centimeters as units for non-parametric coordinates.

g default
v 6.141614 0.000000 -7.230106
v 6.619432 0.000000 -6.881957
v 7.129516 0.000000 -6.817991
v 7.343709 0.000000 -7.200268
v 6.341765 0.547359 -7.451639
v 6.496601 0.547359 -7.115867
v 6.933021 0.369951 -7.120068
v 7.225869 0.369951 -7.423149
v 6.467317 1.094717 -7.639938
v 6.600638 1.094717 -7.380824
v 6.944661 1.094717 -7.436098
v 7.209263 1.094717 -7.651583
v 6.454864 1.496022 -7.618443
v 6.621756 1.640858 -7.529814
v 6.864294 1.891177 -7.664386
v 7.081345 2.105991 -7.615203
v 6.236982 1.378958 -7.837214
v 6.669137 1.731681 -7.835177
v 6.933138 2.068370 -7.848039
v 7.240726 2.199458 -7.729120
v 6.273220 1.603697 -8.055545
v 6.657240 1.731681 -8.072922
v 6.922871 2.058851 -8.182675
v 7.176433 2.199458 -8.046577
v 6.490870 1.642076 -8.281562
v 6.687344 1.642076 -8.305973
v 6.861652 1.883633 -8.342179
v 7.069029 1.974432 -8.251763
v 6.406838 1.094717 -8.288381
v 6.681490 1.094717 -8.489973
v 6.916169 1.180770 -8.496653
v 7.102391 1.094717 -8.402134
v 6.257950 0.547359 -8.376218
v 6.484196 0.349678 -8.614470
v 6.861874 0.676877 -8.689274
v 7.351542 0.359408 -8.517679
v 5.812546 0.000000 -8.747989
v 6.518663 0.000000 -8.938036
v 7.284359 0.000000 -8.941557
v 7.722452 0.000000 -8.686749
v 5.585316 0.000000 -8.238893
v 7.869417 0.000000 -8.240129
v 6.015016 0.000000 -7.816918
v 7.692513 0.000000 -7.468844
v 7.430625 0.547359 -8.088644
v 7.365031 0.547359 -7.651150
v 7.271516 1.094717 -8.135171
v 7.351060 1.094717 -7.908890
v 6.086656 0.547359 -8.151141
v 6.089011 0.547359 -7.714026
v 6.153679 1.094717 -8.064016
v 6.242505 1.094717 -7.768291
vt 0.325013 0.383196
vt 0.254962 0.369040
vt 0.310496 0.264186
vt 0.366452 0.281821
vt 0.276622 0.491230
vt 0.793923 0.001953
vt 0.753288 0.021349
vt 0.392729 0.408186
vt 0.414097 0.301537
vt 0.382282 0.512512
vt 0.817744 0.060536
vt 0.436688 0.251873
vt 0.481624 0.426807
vt 0.474605 0.314392
vt 0.460256 0.576627
vt 0.861937 0.019520
vt 0.899933 0.051192
vt 0.477906 0.214222
vt 0.540501 0.423141
vt 0.540433 0.307330
vt 0.362140 0.041517
vt 0.347943 0.001953
vt 0.906753 0.112809
vt 0.822592 0.107973
vt 0.532393 0.199550
vt 0.607123 0.295892
vt 0.613630 0.447200
vt 0.582214 0.137791
vt 0.567077 0.191835
vt 0.830236 0.281848
vt 0.797130 0.369345
vt 0.690306 0.257110
vt 0.739313 0.218171
vt 0.930620 0.377331
vt 0.877398 0.441389
vt 0.610409 0.101759
vt 0.621337 0.040567
vt 0.880242 0.209394
vt 0.774282 0.187924
vt 0.998047 0.248381
vt 0.117869 0.281253
vt 0.211730 0.169020
vt 0.165698 0.347553
vt 0.256219 0.219988
vt 0.645946 0.263411
vt 0.674118 0.366612
vt 0.744250 0.115319
vt 0.709289 0.066320
vt 0.364709 0.100712
vt 0.370444 0.171395
vt 0.390046 0.210676
vt 0.958856 0.081293
vt 0.959645 0.017962
vt 0.920137 0.001953
vt 0.883265 0.151310
vt 0.930092 0.138272
vt 0.826734 0.157947
vt 0.790169 0.152993
vt 0.088480 0.414534
vt 0.174512 0.452169
vt 0.796118 0.475587
vt 0.668416 0.520805
vt 0.556598 0.578264
vt 0.056451 0.340728
vt 0.173969 0.126433
vt 0.670611 0.001953
vt 0.114677 0.220302
vt 0.001953 0.277043
vn -0.696200 0.317104 0.644011
vn -0.696200 0.317104 0.644011
vn -0.696200 0.317104 0.644011
vn -0.696200 0.317104 0.644011
vn 0.042475 0.515022 0.856124
vn 0.042475 0.515022 0.856124
vn 0.042475 0.515022 0.856124
vn 0.042475 0.515022 0.856124
vn 0.638965 0.606845 0.472719
vn 0.638965 0.606845 0.472719
vn 0.638965 0.606845 0.472719
vn 0.638965 0.606845 0.472719
vn -0.844261 0.346384 0.408951
vn -0.844261 0.346384 0.408951
vn -0.844261 0.346384 0.408951
vn -0.844261 0.346384 0.408951
vn 0.159339 0.398098 0.903399
vn 0.159339 0.398098 0.903399
vn 0.159339 0.398098 0.903399
vn 0.159339 0.398098 0.903399
vn 0.656334 0.267262 0.705548
vn 0.656333 0.267262 0.705548
vn 0.656334 0.267262 0.705548
vn 0.656333 0.267262 0.705548
vn -0.772319 0.091649 0.628589
vn -0.772319 0.091649 0.628589
vn -0.772319 0.091649 0.628589
vn -0.772319 0.091649 0.628589
vn 0.188617 0.273378 0.943233
vn 0.188617 0.273378 0.943233
vn 0.188617 0.273378 0.943233
vn 0.188617 0.273378 0.943233
vn 0.270236 0.132375 0.953651
vn 0.270236 0.132375 0.953651
vn 0.270236 0.132375 0.953651
vn 0.270236 0.132375 0.953650
vn -0.644680 0.744754 0.172424
vn -0.644680 0.744754 0.172424
vn -0.644680 0.744754 0.172424
vn -0.644680 0.744754 0.172424
vn -0.717587 0.668388 0.195773
vn -0.717587 0.668388 0.195773
vn -0.717587 0.668388 0.195773
vn -0.717587 0.668388 0.195773
vn -0.587495 0.769779 0.249579
vn -0.587495 0.769779 0.249579
vn -0.587495 0.769779 0.249579
vn -0.587495 0.769779 0.249579
vn -0.466104 0.803219 0.370926
vn -0.466104 0.803219 0.370926
vn -0.466104 0.803219 0.370926
vn -0.466104 0.803219 0.370926
vn -0.779767 0.625757 0.019790
vn -0.779767 0.625757 0.019790
vn -0.779767 0.625757 0.019790
vn -0.779767 0.625757 0.019790
vn -0.449534 0.892439 0.038373
vn -0.449534 0.892439 0.038373
vn -0.449534 0.892439 0.038373
vn -0.449534 0.892439 0.038373
vn -0.225241 0.947423 -0.227281
vn -0.225241 0.947423 -0.227281
vn -0.225241 0.947423 -0.227281
vn -0.225241 0.947423 -0.227281
vn -0.790498 0.534951 -0.298228
vn -0.790498 0.534951 -0.298228
vn -0.790498 0.534951 -0.298228
vn -0.790498 0.534951 -0.298228
vn 0.032130 0.665736 -0.745496
vn 0.032130 0.665736 -0.745496
vn 0.032130 0.665736 -0.745496
vn 0.032130 0.665736 -0.745496
vn -0.424706 0.189194 -0.885342
vn -0.424706 0.189194 -0.885342
vn -0.424706 0.189194 -0.885342
vn -0.424706 0.189194 -0.885342
vn -0.289157 0.239657 -0.926797
vn -0.289157 0.239657 -0.926797
vn -0.289157 0.239657 -0.926797
vn -0.289157 0.239657 -0.926797
vn 0.415237 0.194250 -0.888732
vn 0.415237 0.194250 -0.888732
vn 0.415237 0.194250 -0.888732
vn 0.415237 0.194250 -0.888732
vn -0.568900 0.279464 -0.773468
vn -0.568900 0.279464 -0.773468
vn -0.568900 0.279464 -0.773468
vn -0.568900 0.279464 -0.773468
vn -0.317713 0.292976 -0.901789
vn -0.317713 0.292976 -0.901789
vn -0.317713 0.292976 -0.901789
vn -0.317713 0.292976 -0.901789
vn 0.492595 0.282182 -0.823240
vn 0.492595 0.282182 -0.823240
vn 0.492595 0.282182 -0.823240
vn 0.492595 0.282182 -0.823240
vn -0.196154 0.655297 -0.729459
vn -0.196154 0.655297 -0.729459
vn -0.196154 0.655297 -0.729459
vn -0.196154 0.655297 -0.729459
vn -0.180792 0.418733 -0.889931
vn -0.180792 0.418733 -0.889931
vn -0.180792 0.418733 -0.889931
vn -0.180792 0.418733 -0.889931
vn 0.492417 0.623795 -0.606964
vn 0.492417 0.623795 -0.606964
vn 0.492417 0.623795 -0.606964
vn 0.492417 0.623795 -0.606964
vn 0.649404 0.691635 -0.316095
vn 0.649404 0.691635 -0.316095
vn 0.649404 0.691635 -0.316095
vn 0.649404 0.691635 -0.316095
vn 0.806308 0.568948 0.161756
vn 0.806308 0.568948 0.161756
vn 0.806308 0.568948 0.161756
vn 0.806308 0.568948 0.161756
vn 0.495291 0.540765 0.679897
vn 0.495291 0.540765 0.679897
vn 0.495291 0.540765 0.679897
vn 0.495291 0.540765 0.679897
vn 0.870729 0.298187 -0.391045
vn 0.870729 0.298187 -0.391045
vn 0.870729 0.298187 -0.391045
vn 0.870729 0.298187 -0.391045
vn 0.988392 0.150496 -0.020772
vn 0.988392 0.150496 -0.020772
vn 0.988392 0.150496 -0.020772
vn 0.988392 0.150496 -0.020772
vn 0.803739 0.229163 0.549080
vn 0.803739 0.229163 0.549080
vn 0.803739 0.229163 0.549080
vn 0.803739 0.229163 0.549080
vn 0.830915 0.119226 -0.543476
vn 0.830915 0.119226 -0.543476
vn 0.830915 0.119226 -0.543476
vn 0.830915 0.119226 -0.543476
vn 0.959753 0.120066 -0.253887
vn 0.959753 0.120066 -0.253887
vn 0.959753 0.120066 -0.253887
vn 0.959753 0.120066 -0.253887
vn 0.773601 0.022415 0.633276
vn 0.773601 0.022415 0.633276
vn 0.773601 0.022415 0.633276
vn 0.773601 0.022415 0.633276
vn -0.633900 0.692654 -0.344095
vn -0.633900 0.692654 -0.344095
vn -0.633900 0.692654 -0.344095
vn -0.633900 0.692654 -0.344095
vn -0.831962 0.364376 0.418413
vn -0.831962 0.364376 0.418412
vn -0.831962 0.364376 0.418412
vn -0.831962 0.364376 0.418413
vn -0.880839 0.263230 0.393488
vn -0.880839 0.263230 0.393488
vn -0.880839 0.263230 0.393488
vn -0.880839 0.263230 0.393488
vn -0.704800 0.245390 -0.665613
vn -0.704800 0.245390 -0.665613
vn -0.704800 0.245390 -0.665613
vn -0.704800 0.245390 -0.665613
vn -0.973784 0.192522 0.121159
vn -0.973784 0.192522 0.121159
vn -0.973784 0.192522 0.121159
vn -0.973784 0.192522 0.121159
vn -0.600821 0.315861 0.734333
vn -0.600821 0.315861 0.734333
vn -0.600821 0.315861 0.734333
vn -0.600821 0.315861 0.734333
vn -0.690199 0.143277 -0.709293
vn -0.690199 0.143277 -0.709293
vn -0.690199 0.143277 -0.709293
vn -0.690199 0.143277 -0.709293
vn -0.974158 0.152708 0.166420
vn -0.974158 0.152708 0.166420
vn -0.974158 0.152708 0.166420
vn -0.974158 0.152708 0.166420
vn -0.622766 0.037737 0.781498
vn -0.622766 0.037737 0.781498
vn -0.622766 0.037737 0.781498
vn -0.622766 0.037737 0.781498
s off
g Nature_RockLarge2
f 1/5/1 2/60/2 6/2/3 5/1/4
f 2/60/5 3/59/6 7/43/7 6/2/8
f 3/59/9 4/64/10 8/41/11 7/43/12
f 5/1/13 6/2/14 10/3/15 9/4/16
f 6/2/17 7/43/18 11/44/19 10/3/20
f 7/43/21 8/41/22 12/42/23 11/44/24
f 9/4/25 10/3/26 14/50/27 13/51/28
f 10/3/29 11/44/30 15/49/31 14/50/32
f 11/44/33 12/42/34 16/21/35 15/49/36
f 13/7/37 14/6/38 18/11/39 17/48/40
f 14/6/41 15/16/42 19/17/43 18/11/44
f 15/16/45 16/54/46 20/53/47 19/17/48
f 17/48/49 18/11/50 22/24/51 21/47/52
f 18/11/53 19/17/54 23/23/55 22/24/56
f 19/17/57 20/53/58 24/52/59 23/23/60
f 21/47/61 22/24/62 26/57/63 25/58/64
f 22/24/65 23/23/66 27/55/67 26/57/68
f 23/23/69 24/52/70 28/56/71 27/55/72
f 25/25/73 26/29/74 30/26/75 29/20/76
f 26/29/77 27/28/78 31/45/79 30/26/80
f 27/28/81 28/36/82 32/32/83 31/45/84
f 29/20/85 30/26/86 34/27/87 33/19/88
f 30/26/89 31/45/90 35/46/91 34/27/92
f 31/45/93 32/32/94 36/31/95 35/46/96
f 33/19/97 34/27/98 38/62/99 37/63/100
f 34/27/101 35/46/102 39/61/103 38/62/104
f 35/46/105 36/31/106 40/35/107 39/61/108
f 42/34/109 40/35/110 36/31/111 45/30/112
f 44/40/113 42/34/114 45/30/115 46/38/116
f 4/64/117 44/68/118 46/67/119 8/41/120
f 45/30/121 36/31/122 32/32/123 47/33/124
f 46/38/125 45/30/126 47/33/127 48/39/128
f 8/41/129 46/67/130 48/65/131 12/42/132
f 47/33/133 32/32/134 28/36/135 24/37/136
f 48/39/137 47/33/138 24/37/139 20/66/140
f 12/42/141 48/65/142 20/22/143 16/21/144
f 37/63/145 41/15/146 49/13/147 33/19/148
f 41/15/149 43/10/150 50/8/151 49/13/152
f 43/10/153 1/5/154 5/1/155 50/8/156
f 33/19/157 49/13/158 51/14/159 29/20/160
f 49/13/161 50/8/162 52/9/163 51/14/164
f 50/8/165 5/1/166 9/4/167 52/9/168
f 29/20/169 51/14/170 21/18/171 25/25/172
f 51/14/173 52/9/174 17/12/175 21/18/176
f 52/9/177 9/4/178 13/51/179 17/12/180
